<svg width="659" height="466" fill="none" xmlns="http://www.w3.org/2000/svg"><g filter="url(#a)"><rect x="40.5" y="10.5" width="578" height="385" rx="26" fill="#777" style="fill:color(display-p3 .4671 .4671 .4671);fill-opacity:1"/></g><rect x="42.5" y="12.5" width="574.23" height="381.865" rx="25" fill="url(#b)"/><rect opacity=".1" x="94.531" y="26.803" width="471.463" height="353.756" rx="5" fill="#2A2A2A" style="fill:color(display-p3 .1649 .1649 .1649);fill-opacity:1"/><rect x="61.531" y="29.803" width="536" height="346" rx="8" fill="#E9EAF5" style="fill:color(display-p3 .9137 .9176 .9608);fill-opacity:1"/><mask id="c" style="mask-type:luminance" maskUnits="userSpaceOnUse" x="61" y="29" width="537" height="347"><rect x="61.531" y="29.803" width="536" height="346" rx="8" fill="#fff" style="fill:#fff;fill-opacity:1"/></mask><g mask="url(#c)"><path fill="#5667D7" style="fill:color(display-p3 .3373 .4039 .8431);fill-opacity:1" d="M58 30h547v59H58z"/><g fill="#fff"><circle opacity=".245" cx="100" cy="60" r="16" style="fill:#fff;fill-opacity:1"/><circle opacity=".104" cx="561" cy="60" r="16" style="fill:#fff;fill-opacity:1"/><rect opacity=".75" x="131" y="50" width="120" height="6" rx="3" style="fill:#fff;fill-opacity:1"/><rect opacity=".25" x="131" y="64" width="64" height="6" rx="3" style="fill:#fff;fill-opacity:1"/></g><rect x="118.53" y="122.803" width="261" height="316" rx="8" fill="#fff" style="fill:#fff;fill-opacity:1"/><rect x="413.53" y="122.803" width="128" height="316" rx="8" fill="#fff" style="fill:#fff;fill-opacity:1"/><rect opacity=".5" x="197" y="161" width="120" height="6" rx="3" fill="#252A43" style="fill:color(display-p3 .1451 .1647 .2627);fill-opacity:1"/></g><circle cx="166" cy="227" r="16" fill="#81C4D4" style="fill:color(display-p3 .5059 .7686 .8314);fill-opacity:1"/><rect opacity=".5" x="197" y="217" width="120" height="6" rx="3" fill="#252A43" style="fill:color(display-p3 .1451 .1647 .2627);fill-opacity:1"/><rect opacity=".25" x="197" y="231" width="64" height="6" rx="3" fill="#252A43" style="fill:color(display-p3 .1451 .1647 .2627);fill-opacity:1"/><circle cx="166" cy="283" r="16" fill="#9E80CF" style="fill:color(display-p3 .6196 .502 .8118);fill-opacity:1"/><rect opacity=".5" x="197" y="273" width="120" height="6" rx="3" fill="#252A43" style="fill:color(display-p3 .1451 .1647 .2627);fill-opacity:1"/><rect opacity=".25" x="197" y="287" width="64" height="6" rx="3" fill="#252A43" style="fill:color(display-p3 .1451 .1647 .2627);fill-opacity:1"/><circle cx="166" cy="339" r="16" fill="#DD7E7B" style="fill:color(display-p3 .8667 .4941 .4824);fill-opacity:1"/><rect opacity=".5" x="197" y="329" width="120" height="6" rx="3" fill="#252A43" style="fill:color(display-p3 .1451 .1647 .2627);fill-opacity:1"/><rect opacity=".25" x="197" y="343" width="64" height="6" rx="3" fill="#252A43" style="fill:color(display-p3 .1451 .1647 .2627);fill-opacity:1"/><defs><linearGradient id="b" x1="888.042" y1="206.406" x2="548.325" y2="-304.444" gradientUnits="userSpaceOnUse"><stop stop-color="#151515" style="stop-color:color(display-p3 .0806 .0806 .0806);stop-opacity:1"/><stop offset="1" stop-color="#3D3D3D" style="stop-color:color(display-p3 .2393 .2393 .2393);stop-opacity:1"/></linearGradient><filter id="a" x=".5" y=".5" width="658" height="465" filterUnits="userSpaceOnUse" color-interpolation-filters="sRGB"><feFlood flood-opacity="0" result="BackgroundImageFix"/><feColorMatrix in="SourceAlpha" values="0 0 0 0 0 0 0 0 0 0 0 0 0 0 0 0 0 0 127 0" result="hardAlpha"/><feOffset dy="30"/><feGaussianBlur stdDeviation="20"/><feColorMatrix values="0 0 0 0 0.192157 0 0 0 0 0.227451 0 0 0 0 0.490196 0 0 0 0.20012 0"/><feBlend in2="BackgroundImageFix" result="effect1_dropShadow_0_372"/><feBlend in="SourceGraphic" in2="effect1_dropShadow_0_372" result="shape"/></filter></defs></svg>